<?xml version="1.0" standalone="no"?>
<!DOCTYPE svg PUBLIC "-//W3C//DTD SVG 20010904//EN"
 "http://www.w3.org/TR/2001/REC-SVG-20010904/DTD/svg10.dtd">
<svg version="1.0" xmlns="http://www.w3.org/2000/svg"
 width="512.000000pt" height="512.000000pt" viewBox="0 0 512.000000 512.000000"
 preserveAspectRatio="xMidYMid meet">
<metadata>
Created by potrace 1.11, written by Peter Selinger 2001-2013
</metadata>
<g transform="translate(0.000000,512.000000) scale(0.100000,-0.100000)"
fill="#000000" stroke="none">
<path d="M3430 4677 l0 -123 78 0 77 1 3 123 3 122 -81 0 -80 0 0 -123z"/>
<path d="M3680 4368 c0 -420 0 -431 -18 -410 -11 12 -88 94 -173 183 -85 89
-157 166 -161 172 -4 6 -9 9 -11 7 -4 -5 -123 -521 -133 -580 -3 -14 -12 -54
-20 -90 -29 -122 -86 -375 -90 -399 -3 -14 -7 -27 -9 -30 -2 -3 -89 -6 -193
-6 l-191 1 1 -181 c0 -99 0 -186 -1 -192 -1 -9 -21 -13 -66 -13 l-65 0 0 193
0 193 -237 -1 -238 0 -3 -192 -2 -193 -70 1 -70 1 0 192 0 192 -240 0 -240 0
0 -193 0 -194 -67 3 -66 3 -1 190 -1 190 -234 1 c-213 0 -234 -2 -240 -17 -4
-14 -6 -848 -2 -965 1 -21 3 -21 240 -21 l238 1 -1 228 -1 228 68 0 67 0 0
-229 0 -228 240 0 240 0 0 229 0 228 70 0 70 0 0 -228 0 -229 238 1 237 1 3
228 2 227 65 0 c64 0 65 0 65 -27 1 -16 2 -118 3 -228 l2 -200 72 -1 c40 0 75
-3 77 -5 3 -3 -4 -41 -14 -84 -11 -44 -31 -134 -46 -200 -14 -66 -60 -268
-101 -450 -41 -181 -76 -337 -77 -345 -2 -8 -9 -14 -15 -12 -9 2 -149 110
-171 132 -3 3 -27 23 -55 45 -27 21 -52 42 -55 45 -3 3 -27 23 -55 45 -27 22
-55 44 -62 50 -6 5 -49 40 -95 77 -81 65 -423 343 -463 376 -121 100 -264 212
-271 212 -11 0 -764 -752 -764 -763 0 -4 24 -32 53 -61 l52 -54 336 336 337
335 48 -41 c27 -23 173 -142 324 -264 151 -123 331 -269 400 -325 473 -385
545 -441 551 -430 4 7 14 48 24 92 9 44 29 136 45 205 16 69 31 136 34 150 2
14 19 86 36 160 17 74 33 146 36 160 3 14 16 72 30 129 13 57 27 117 29 135 3
17 11 49 17 71 5 22 12 51 14 65 3 14 7 32 9 40 2 8 7 30 10 49 3 19 8 37 10
41 2 4 7 22 10 41 3 18 8 35 9 37 2 1 38 4 80 5 69 1 76 3 77 22 1 11 1 113 1
228 l0 207 64 0 64 0 0 -554 0 -554 236 -234 c130 -128 242 -239 250 -246 7
-7 17 -12 21 -11 4 1 71 1 148 0 l141 -1 -1 -327 0 -328 81 -3 80 -3 -1 1351
0 1352 85 -89 c133 -139 382 -403 436 -460 27 -29 51 -53 55 -53 11 0 109 95
109 106 0 5 -37 47 -81 94 -119 125 -370 389 -475 499 -50 53 -127 134 -171
181 -57 59 -79 89 -74 100 4 8 6 112 6 230 l0 215 -82 3 -82 3 1 -63 c1 -121
4 -114 -49 -112 -27 1 -56 2 -65 3 -17 1 -18 33 -18 516 l0 515 -80 0 -80 0 0
-432z m-171 -480 c54 -57 115 -121 135 -143 l36 -40 0 -277 c0 -215 -3 -278
-12 -279 -7 0 -95 -1 -195 -1 l-183 0 0 -159 0 -159 -65 0 -64 0 3 58 c2 31
11 89 20 127 25 112 56 248 61 270 2 11 38 171 79 355 42 184 76 338 76 343 0
15 13 4 109 -95z m618 -650 c46 -49 79 -88 71 -89 -16 -1 -340 -1 -350 0 -5 1
-8 88 -8 194 l1 192 100 -105 c56 -58 139 -144 186 -192z m-42 -1128 l0 -875
-115 -3 -115 -2 -202 199 -203 199 0 679 0 680 318 -1 317 -1 0 -875z"/>
<path d="M3932 4678 l3 -123 78 0 77 -1 0 123 0 123 -80 0 -81 0 3 -122z"/>
</g>
</svg>
